<svg width="47" height="40" viewBox="0 0 47 40" fill="none" xmlns="http://www.w3.org/2000/svg">
<path d="M25.0128 36.1666L25.2481 3.16747C25.2589 1.65501 26.5052 0.426363 28.0177 0.437149C29.5301 0.447935 30.7588 1.69423 30.748 3.20669L30.5127 36.2059C30.5019 37.7183 29.2556 38.947 27.7431 38.9362C26.2307 38.9254 25.002 37.6791 25.0128 36.1666Z" fill="url(#paint0_linear_32_85)"/>
<path d="M16.8804 3.2461L16.645 36.2453C16.6342 37.7577 17.8629 39.004 19.3753 39.0148C20.8878 39.0256 22.1341 37.7969 22.1449 36.2845L22.3802 3.28532C22.391 1.77286 21.1624 0.526569 19.6499 0.515783C18.1374 0.504997 16.8911 1.73364 16.8804 3.2461Z" fill="url(#paint1_linear_32_85)"/>
<path d="M8.61087 8.74552L8.65 30.7455C8.63922 32.2579 9.86786 33.5042 11.3803 33.515C12.8928 33.5258 14.1391 32.2971 14.1499 30.7847L14.1107 8.78475C14.1215 7.27228 12.8929 6.02599 11.3804 6.0152C9.86795 6.00442 8.62165 7.23306 8.61087 8.74552Z" fill="url(#paint2_linear_32_85)"/>
<path d="M0.144875 14.1281L0.144759 25.0002C0.133973 26.5126 1.36262 27.7589 2.87508 27.7697C4.38754 27.7805 5.63383 26.5519 5.64462 25.0394L5.64473 14.1673C5.65552 12.6549 4.42688 11.4086 2.91442 11.3978C1.40195 11.387 0.155661 12.6157 0.144875 14.1281Z" fill="url(#paint3_linear_32_85)"/>
<path d="M33.1251 8.7063L33.1643 30.7062C33.1535 32.2187 34.3821 33.465 35.8946 33.4758C37.407 33.4866 38.6533 32.2579 38.6641 30.7455L38.625 8.74552C38.6358 7.23306 37.4071 5.98677 35.8947 5.97598C34.3822 5.9652 33.1359 7.19384 33.1251 8.7063Z" fill="url(#paint4_linear_32_85)"/>
<path d="M41.3948 14.1281L41.3947 25.0002C41.3839 26.5126 42.6125 27.7589 44.125 27.7697C45.6374 27.7805 46.8837 26.5519 46.8945 25.0394L46.8946 14.1673C46.9054 12.6549 45.6768 11.4086 44.1643 11.3978C42.6519 11.387 41.4056 12.6157 41.3948 14.1281Z" fill="url(#paint5_linear_32_85)"/>
<defs>
<linearGradient id="paint0_linear_32_85" x1="26.5241" y1="16.9269" x2="66.398" y2="17.2113" gradientUnits="userSpaceOnUse">
<stop stop-color="#FF9315"/>
<stop offset="0.970299" stop-color="#FDE619"/>
</linearGradient>
<linearGradient id="paint1_linear_32_85" x1="26.5241" y1="16.9269" x2="66.398" y2="17.2113" gradientUnits="userSpaceOnUse">
<stop stop-color="#FF9315"/>
<stop offset="0.970299" stop-color="#FDE619"/>
</linearGradient>
<linearGradient id="paint2_linear_32_85" x1="26.5241" y1="16.9269" x2="66.398" y2="17.2113" gradientUnits="userSpaceOnUse">
<stop stop-color="#FF9315"/>
<stop offset="0.970299" stop-color="#FDE619"/>
</linearGradient>
<linearGradient id="paint3_linear_32_85" x1="26.5241" y1="16.9269" x2="66.398" y2="17.2113" gradientUnits="userSpaceOnUse">
<stop stop-color="#FF9315"/>
<stop offset="0.970299" stop-color="#FDE619"/>
</linearGradient>
<linearGradient id="paint4_linear_32_85" x1="26.5241" y1="16.9269" x2="66.398" y2="17.2113" gradientUnits="userSpaceOnUse">
<stop stop-color="#FF9315"/>
<stop offset="0.970299" stop-color="#FDE619"/>
</linearGradient>
<linearGradient id="paint5_linear_32_85" x1="26.5241" y1="16.9269" x2="66.398" y2="17.2113" gradientUnits="userSpaceOnUse">
<stop stop-color="#FF9315"/>
<stop offset="0.970299" stop-color="#FDE619"/>
</linearGradient>
</defs>
</svg>
